<svg xmlns="http://www.w3.org/2000/svg" width="1920" height="960" viewBox="0 0 1920 960"><rect x="0" y="0" width="1920" height="960" rx="0" fill="#f6f4ee"/><g transform="translate(92 64) scale(1.0)"><rect width="64" height="64" rx="16" fill="#173e34"/><g fill="#d6e8b7"><rect x="13" y="14" width="15" height="15" rx="3"/><rect x="35" y="14" width="15" height="15" rx="3"/><rect x="13" y="36" width="15" height="15" rx="3"/></g><rect x="35" y="36" width="15" height="15" rx="3" fill="#d0805f"/></g><text x="178" y="110" font-family="DejaVu Sans" font-size="34" font-weight="bold" fill="#24352e">positron deck</text><text x="1820" y="108" font-family="DejaVu Sans" font-size="22" font-weight="normal" fill="#66746b">01</text><text x="92" y="285" font-family="DejaVu Sans" font-size="92" font-weight="bold" fill="#24352e">Positron on</text><text x="92" y="400" font-family="DejaVu Sans" font-size="92" font-weight="bold" fill="#b65d3c">Stream Deck</text><text x="96" y="500" font-family="DejaVu Sans" font-size="33" font-weight="normal" fill="#24352e">192 actions for code, data and layouts.</text><text x="96" y="830" font-family="DejaVu Sans" font-size="28" font-weight="normal" fill="#24352e">Windows · Positron Desktop and Workbench</text><rect x="1030" y="215" width="370" height="150" rx="24" fill="#ffffff"/><g transform="translate(1054 241) scale(1.25)"><title>Run Selection or Line</title><rect width="72" height="72" rx="12" fill="#167268"/><rect x="1" y="1" width="70" height="70" rx="11" fill="none" stroke="#ffffff30"/><g fill="none" stroke="white" stroke-width="3" stroke-linecap="round" stroke-linejoin="round" transform="translate(0 0)"><path d="m25 18-13 13 13 13m22-26 13 13-13 13m-7-29-8 32"/></g></g><text x="1165" y="302" font-family="DejaVu Sans" font-size="25" font-weight="normal" fill="#24352e">Run selection</text><rect x="1425" y="215" width="370" height="150" rx="24" fill="#ffffff"/><g transform="translate(1449 241) scale(1.25)"><title>Run Code Cell</title><rect width="72" height="72" rx="12" fill="#167268"/><rect x="1" y="1" width="70" height="70" rx="11" fill="none" stroke="#ffffff30"/><g fill="none" stroke="white" stroke-width="3" stroke-linecap="round" stroke-linejoin="round" transform="translate(0 0)"><path d="m25 18-13 13 13 13m22-26 13 13-13 13m-7-29-8 32"/></g></g><text x="1560" y="302" font-family="DejaVu Sans" font-size="25" font-weight="normal" fill="#24352e">Run cell</text><rect x="1030" y="395" width="370" height="150" rx="24" fill="#ffffff"/><g transform="translate(1054 421) scale(1.25)"><title>Data Connections</title><rect width="72" height="72" rx="12" fill="#38628f"/><rect x="1" y="1" width="70" height="70" rx="11" fill="none" stroke="#ffffff30"/><g fill="none" stroke="white" stroke-width="3" stroke-linecap="round" stroke-linejoin="round" transform="translate(0 0)"><path d="M12 19h19l6 6h23v24H12Z"/></g></g><text x="1165" y="482" font-family="DejaVu Sans" font-size="25" font-weight="normal" fill="#24352e">Connections</text><rect x="1425" y="395" width="370" height="150" rx="24" fill="#ffffff"/><g transform="translate(1449 421) scale(1.25)"><title>Git: Show Diff</title><rect width="72" height="72" rx="12" fill="#ae5745"/><rect x="1" y="1" width="70" height="70" rx="11" fill="none" stroke="#ffffff30"/><g fill="none" stroke="white" stroke-width="3" stroke-linecap="round" stroke-linejoin="round" transform="translate(0 0)"><circle cx="22" cy="15" r="5"/><circle cx="50" cy="15" r="5"/><circle cx="22" cy="48" r="5"/><path d="M22 20v23m0-10h15q13 0 13-13"/></g></g><text x="1560" y="482" font-family="DejaVu Sans" font-size="25" font-weight="normal" fill="#24352e">Show diff</text><rect x="1030" y="575" width="370" height="150" rx="24" fill="#ffffff"/><g transform="translate(1054 601) scale(1.25)"><title>Stacked Data Science</title><rect width="72" height="72" rx="12" fill="#6f5a92"/><rect x="1" y="1" width="70" height="70" rx="11" fill="none" stroke="#ffffff30"/><g fill="none" stroke="white" stroke-width="3" stroke-linecap="round" stroke-linejoin="round" transform="translate(0 0)"><rect x="12" y="10" width="48" height="42" rx="4"/><path d="M27 10v42M27 33h33M46 10v23"/></g></g><text x="1165" y="662" font-family="DejaVu Sans" font-size="25" font-weight="normal" fill="#24352e">Stacked layout</text><rect x="1425" y="575" width="370" height="150" rx="24" fill="#ffffff"/><g transform="translate(1449 601) scale(1.25)"><title>Save and Test</title><rect width="72" height="72" rx="12" fill="#a1642d"/><rect x="1" y="1" width="70" height="70" rx="11" fill="none" stroke="#ffffff30"/><g fill="none" stroke="white" stroke-width="3" stroke-linecap="round" stroke-linejoin="round" transform="translate(0 0)"><rect x="10" y="23" width="14" height="16" rx="3"/><rect x="48" y="23" width="14" height="16" rx="3"/><path d="M24 31h24m-9-8 9 8-9 8"/></g></g><text x="1560" y="662" font-family="DejaVu Sans" font-size="25" font-weight="normal" fill="#24352e">Save and test</text></svg>